<svg width="17" height="17" viewBox="0 0 17 17" fill="none" xmlns="http://www.w3.org/2000/svg">
<path d="M1.99117 6.11664L15.6254 1.50174C15.6746 1.4849 15.7276 1.48266 15.778 1.4953C15.8284 1.50794 15.8741 1.53492 15.9096 1.57298C15.945 1.61103 15.9687 1.65853 15.9777 1.70975C15.9867 1.76096 15.9807 1.8137 15.9604 1.86158L10.3908 15.1367C10.3687 15.1871 10.3317 15.2295 10.2849 15.2582C10.238 15.287 10.1834 15.3007 10.1285 15.2975C10.0736 15.2943 10.021 15.2743 9.97777 15.2403C9.93454 15.2064 9.90275 15.1599 9.88668 15.1073L7.81825 9.43957C7.79463 9.35945 7.75271 9.28592 7.69579 9.2248C7.63887 9.16368 7.56852 9.11663 7.49029 9.08739L1.98461 6.62366C1.9326 6.60428 1.88786 6.5693 1.8565 6.52351C1.82514 6.47771 1.80869 6.42335 1.80941 6.36784C1.81013 6.31234 1.82797 6.25842 1.86051 6.21345C1.89305 6.16848 1.93868 6.13467 1.99117 6.11664V6.11664Z" stroke="#25272E" stroke-width="1.04988" stroke-linecap="round" stroke-linejoin="round"/>
<path d="M15.8527 1.62649L7.73771 9.18625" stroke="#25272E" stroke-width="1.04988" stroke-linecap="round" stroke-linejoin="round"/>
</svg>
