<svg width="16" height="15" viewBox="0 0 16 15" fill="none" xmlns="http://www.w3.org/2000/svg">
<path d="M7.54029 0.351246C7.57621 0.240689 7.73262 0.240689 7.76855 0.351246L9.47972 5.61769C9.49578 5.66713 9.54186 5.70061 9.59384 5.70061H15.1313C15.2476 5.70061 15.2959 5.84936 15.2018 5.91769L10.7219 9.17253C10.6799 9.20309 10.6623 9.25726 10.6783 9.3067L12.3895 14.5731C12.4254 14.6837 12.2989 14.7756 12.2049 14.7073L7.72495 11.4525C7.68289 11.4219 7.62594 11.4219 7.58388 11.4525L3.10398 14.7073C3.00993 14.7756 2.8834 14.6837 2.91932 14.5731L4.63049 9.3067C4.64655 9.25726 4.62895 9.20309 4.5869 9.17253L0.10699 5.91769C0.0129448 5.84936 0.0612779 5.70061 0.177525 5.70061H5.71499C5.76698 5.70061 5.81306 5.66713 5.82912 5.61769L7.54029 0.351246Z" fill="#FCC232"/>
</svg>
