<svg width="48" height="48" viewBox="0 0 48 48" fill="none" xmlns="http://www.w3.org/2000/svg">
<circle r="24" transform="matrix(1 0 0 -1 24 24)" fill="#3C3F4A"/>
<path d="M26.3928 23.6534C26.3928 22.0309 25.0948 20.7329 23.4723 20.7329C21.8498 20.7329 20.5518 22.0309 20.5518 23.6534C20.5518 25.2759 21.8498 26.5739 23.4723 26.5739C25.0948 26.5739 26.3928 25.2759 26.3928 23.6534ZM27.9071 23.6534C27.9071 26.1412 25.9601 28.0882 23.4723 28.0882C20.9844 28.0882 19.0374 26.1412 19.0374 23.6534C19.0374 21.1655 20.9844 19.2185 23.4723 19.2185C25.9601 19.2185 27.9071 21.1655 27.9071 23.6534ZM29.097 19.0022C29.097 19.6512 28.6643 20.0839 28.0153 20.0839C27.3663 20.0839 26.9336 19.6512 26.9336 19.0022C26.9336 18.3532 27.3663 17.9205 28.0153 17.9205C28.6643 17.9205 29.097 18.4613 29.097 19.0022ZM23.4723 16.5143C22.1743 16.5143 19.4701 16.4062 18.3884 16.8388C17.6313 17.1633 16.9822 17.8123 16.7659 18.5695C16.3332 19.6512 16.4414 22.3554 16.4414 23.6534C16.4414 24.9514 16.3332 27.6555 16.7659 28.7372C16.9822 29.4944 17.6313 30.1434 18.3884 30.3597C19.4701 30.7924 22.2824 30.6842 23.4723 30.6842C24.6621 30.6842 27.4745 30.7924 28.5561 30.3597C29.3133 30.0352 29.8541 29.4944 30.1786 28.7372C30.6113 27.5474 30.5031 24.8432 30.5031 23.6534C30.5031 22.4635 30.6113 19.6512 30.1786 18.5695C29.9623 17.8123 29.3133 17.1633 28.5561 16.947C27.4745 16.4062 24.7703 16.5143 23.4723 16.5143ZM32.1256 23.6534V27.2229C32.1256 28.5209 31.693 29.8189 30.7195 30.9006C29.746 31.8741 28.448 32.3067 27.0418 32.3067H19.9028C18.6048 32.3067 17.3068 31.8741 16.2251 30.9006C15.3597 29.9271 14.8189 28.6291 14.8189 27.2229V23.6534V20.0839C14.8189 18.6777 15.3597 17.3797 16.2251 16.4062C17.3068 15.5408 18.6048 15 19.9028 15H27.0418C28.3398 15 29.6378 15.4327 30.7195 16.4062C31.5848 17.3797 32.1256 18.6777 32.1256 20.0839V23.6534Z" fill="#A7A9BE"/>
</svg>
