<svg width="56" height="56" viewBox="0 0 56 56" fill="none" xmlns="http://www.w3.org/2000/svg">
<g filter="url(#filter0_d)">
<circle r="24" transform="matrix(1 0 0 -1 28 24)" fill="#FCC232"/>
</g>
<path d="M23.5325 31.999C25.1271 32.0079 26.7077 31.7353 28.1829 31.1971C29.658 30.6588 30.9982 29.8656 32.1257 28.8635C33.2532 27.8614 34.1457 26.6702 34.7513 25.3591C35.3569 24.0481 35.6635 22.6432 35.6535 21.226V20.731C36.4801 20.1927 37.1955 19.5313 37.7681 18.7761C36.9898 19.0786 36.1662 19.2793 35.3231 19.3718C36.217 18.8984 36.8877 18.1532 37.2111 17.2742C36.3781 17.7184 35.4645 18.0307 34.5113 18.1971C33.8693 17.5892 33.0197 17.1862 32.0941 17.0505C31.1685 16.9149 30.2184 17.0541 29.3907 17.4468C28.5631 17.8394 27.9042 18.4635 27.5158 19.2225C27.1275 19.9815 27.0314 20.8331 27.2424 21.6455C25.5489 21.5716 23.8919 21.1815 22.3793 20.5007C20.8666 19.8198 19.5323 18.8634 18.4632 17.6937C17.9241 18.5253 17.7607 19.508 18.0061 20.4426C18.2515 21.3773 18.8873 22.1941 19.7848 22.7278C19.1227 22.7051 18.4759 22.5442 17.8968 22.258V22.2999C17.8909 23.169 18.2203 24.0136 18.8301 24.693C19.44 25.3724 20.2933 25.8455 21.248 26.0335C20.6322 26.1808 19.9871 26.2037 19.36 26.1007C19.6364 26.8418 20.164 27.4889 20.8705 27.953C21.5769 28.4172 22.4276 28.6757 23.3059 28.6932C21.8042 29.7676 19.9378 30.359 18.0101 30.3713C17.6721 30.3626 17.3349 30.3374 17 30.2958C18.9512 31.4007 21.2189 31.9832 23.5325 31.9738" fill="#25272E"/>
<defs>
<filter id="filter0_d" x="0" y="0" width="56" height="56" filterUnits="userSpaceOnUse" color-interpolation-filters="sRGB">
<feFlood flood-opacity="0" result="BackgroundImageFix"/>
<feColorMatrix in="SourceAlpha" type="matrix" values="0 0 0 0 0 0 0 0 0 0 0 0 0 0 0 0 0 0 127 0" result="hardAlpha"/>
<feOffset dy="4"/>
<feGaussianBlur stdDeviation="2"/>
<feComposite in2="hardAlpha" operator="out"/>
<feColorMatrix type="matrix" values="0 0 0 0 0 0 0 0 0 0 0 0 0 0 0 0 0 0 0.25 0"/>
<feBlend mode="normal" in2="BackgroundImageFix" result="effect1_dropShadow"/>
<feBlend mode="normal" in="SourceGraphic" in2="effect1_dropShadow" result="shape"/>
</filter>
</defs>
</svg>
