<svg width="48" height="48" viewBox="0 0 48 48" fill="none" xmlns="http://www.w3.org/2000/svg">
<circle r="24" transform="matrix(1 0 0 -1 24 24)" fill="#3C3F4A"/>
<path d="M34.5395 19.348C34.4207 18.8875 34.1788 18.4656 33.8381 18.1249C33.4975 17.7842 33.0703 17.5367 32.5996 17.4075C30.8796 17 24 17 24 17C24 17 17.1204 17 15.4004 17.4463C14.9297 17.5755 14.5025 17.823 14.1619 18.1637C13.8212 18.5044 13.5793 18.9263 13.4605 19.3868C13.1458 21.0804 12.9918 22.7985 13.0006 24.5194C12.9894 26.2533 13.1433 27.9844 13.4605 29.6908C13.5915 30.137 13.8388 30.5428 14.1787 30.8692C14.5185 31.1955 14.9393 31.4313 15.4004 31.5537C17.1204 32 24 32 24 32C24 32 30.8796 32 32.5996 31.5537C33.0703 31.4245 33.4975 31.177 33.8381 30.8363C34.1788 30.4956 34.4207 30.0737 34.5395 29.6132C34.8518 27.9323 35.0058 26.2274 34.9994 24.5194C35.0107 22.7855 34.8567 21.0544 34.5395 19.348V19.348Z" stroke="#A7A9BE" stroke-width="1.5" stroke-linecap="round" stroke-linejoin="round"/>
<path d="M22 28L28 24.5L22 21V28Z" stroke="#A7A9BE" stroke-width="1.5" stroke-linecap="round" stroke-linejoin="round"/>
</svg>
